<svg width="58" height="30" viewBox="0 0 58 30" fill="none" xmlns="http://www.w3.org/2000/svg">
<rect x="0.400391" y="3" width="57.6" height="24" rx="12" fill="#111928"/>
<rect x="0.400391" y="0.600006" width="28.8" height="28.8" rx="14.4" fill="#1C64F2"/>
<path d="M10.7996 12.6V11H21.9996V12.6H10.7996ZM10.7996 15.8V14.2H21.9996V15.8H10.7996ZM10.7996 19V17.4H21.9996V19H10.7996ZM8.39961 12.6C8.17294 12.6 7.98294 12.5233 7.82961 12.37C7.67628 12.2167 7.59961 12.0267 7.59961 11.8C7.59961 11.5733 7.67628 11.3833 7.82961 11.23C7.98294 11.0767 8.17294 11 8.39961 11C8.62628 11 8.81628 11.0767 8.96961 11.23C9.12294 11.3833 9.19961 11.5733 9.19961 11.8C9.19961 12.0267 9.12294 12.2167 8.96961 12.37C8.81628 12.5233 8.62628 12.6 8.39961 12.6ZM8.39961 15.8C8.17294 15.8 7.98294 15.7233 7.82961 15.57C7.67628 15.4167 7.59961 15.2267 7.59961 15C7.59961 14.7733 7.67628 14.5833 7.82961 14.43C7.98294 14.2767 8.17294 14.2 8.39961 14.2C8.62628 14.2 8.81628 14.2767 8.96961 14.43C9.12294 14.5833 9.19961 14.7733 9.19961 15C9.19961 15.2267 9.12294 15.4167 8.96961 15.57C8.81628 15.7233 8.62628 15.8 8.39961 15.8ZM8.39961 19C8.17294 19 7.98294 18.9233 7.82961 18.77C7.67628 18.6167 7.59961 18.4267 7.59961 18.2C7.59961 17.9733 7.67628 17.7833 7.82961 17.63C7.98294 17.4767 8.17294 17.4 8.39961 17.4C8.62628 17.4 8.81628 17.4767 8.96961 17.63C9.12294 17.7833 9.19961 17.9733 9.19961 18.2C9.19961 18.4267 9.12294 18.6167 8.96961 18.77C8.81628 18.9233 8.62628 19 8.39961 19Z" fill="white"/>
<path d="M43.602 23C43.4153 23 43.2553 22.9467 43.122 22.84C42.9886 22.7333 42.8886 22.5933 42.822 22.42C42.5686 21.6733 42.2486 20.9733 41.862 20.32C41.4886 19.6667 40.962 18.9 40.282 18.02C39.602 17.14 39.0486 16.3 38.622 15.5C38.2086 14.7 38.002 13.7333 38.002 12.6C38.002 11.04 38.542 9.72 39.622 8.64C40.7153 7.54667 42.042 7 43.602 7C45.162 7 46.482 7.54667 47.562 8.64C48.6553 9.72 49.202 11.04 49.202 12.6C49.202 13.8133 48.9686 14.8267 48.502 15.64C48.0486 16.44 47.522 17.2333 46.922 18.02C46.202 18.98 45.6553 19.78 45.282 20.42C44.922 21.0467 44.622 21.7133 44.382 22.42C44.3153 22.6067 44.2086 22.7533 44.062 22.86C43.9286 22.9533 43.7753 23 43.602 23ZM43.602 14.6C44.162 14.6 44.6353 14.4067 45.022 14.02C45.4086 13.6333 45.602 13.16 45.602 12.6C45.602 12.04 45.4086 11.5667 45.022 11.18C44.6353 10.7933 44.162 10.6 43.602 10.6C43.042 10.6 42.5686 10.7933 42.182 11.18C41.7953 11.5667 41.602 12.04 41.602 12.6C41.602 13.16 41.7953 13.6333 42.182 14.02C42.5686 14.4067 43.042 14.6 43.602 14.6Z" fill="white"/>
</svg>
